<svg xmlns="http://www.w3.org/2000/svg" viewBox="0 0 128 128" fill="none">
  <defs>
    <linearGradient id="bg" x1="0%" y1="0%" x2="100%" y2="100%">
      <stop offset="0%" stop-color="#3B82F6"/>
      <stop offset="50%" stop-color="#6366F1"/>
      <stop offset="100%" stop-color="#8B5CF6"/>
    </linearGradient>
  </defs>

  <!-- 背景圆角矩形 -->
  <rect x="8" y="8" width="112" height="112" rx="22" fill="url(#bg)"/>

  <!-- 简化文档图标 -->
  <g transform="translate(32, 28)">
    <!-- 文档主体 -->
    <rect x="0" y="0" width="44" height="56" rx="4" fill="white" fill-opacity="0.95"/>
    <!-- 折叠角 -->
    <path d="M32 0v12a4 4 0 0 0 4 4h8" fill="#E0E7FF" fill-opacity="0.5"/>
    <!-- 内容线条 -->
    <rect x="8" y="16" width="28" height="3" rx="1.5" fill="#6366F1" fill-opacity="0.5"/>
    <rect x="8" y="24" width="20" height="3" rx="1.5" fill="#6366F1" fill-opacity="0.35"/>
    <rect x="8" y="32" width="24" height="3" rx="1.5" fill="#6366F1" fill-opacity="0.35"/>
    <rect x="8" y="40" width="16" height="3" rx="1.5" fill="#6366F1" fill-opacity="0.25"/>
  </g>

  <!-- 闪电 - 右下角 -->
  <g transform="translate(78, 78)">
    <path d="M6 0 L2 14 L10 14 L4 28 L16 10 L8 10 L14 0 Z"
          fill="white" fill-opacity="0.95"/>
  </g>
</svg>
